<svg xml:space="preserve" style="enable-background:new 0 0 2500 2500;" viewBox="0 0 2500 2500" y="0px" x="0px" xmlns:xlink="http://www.w3.org/1999/xlink" xmlns="http://www.w3.org/2000/svg" id="Layer" version="1.1">
<style type="text/css">
	.st0{fill:#9673FF;}
	.st1{fill:#160059;stroke:#160059;stroke-width:3;stroke-miterlimit:10;}
	.st2{fill:#FF4A4A;}
	.st3{fill:#160059;}
	.st4{fill:#1B055D;}
	.st5{fill:#FFFFFF;}
</style>
<polygon points="2369.2,1486.7 2151.4,1739.7 2054.1,1376.5" class="st0"></polygon>
<path d="M1263.9,1152.8c0,0-71.1-2.8-138.9-5.4c-80.7-3.1-152.2-52.8-183.3-127.2c-13.5-32.2-23.8-64.6-23.2-88.7
	c0.3-15,4.8-26.7,16-32.5c28.4-14.7,51.9-5.5,70.9,14c13.1,13.5,24,31.8,33,50.8c29.3,62.2,86.9,106.5,154.6,119
	c45.5,8.5,86.5,16,86.5,16c1.7,0.3,3.3-0.8,3.6-2.5c0.3-1.7-0.8-3.3-2.5-3.6c0,0-41-7.5-86.5-16c-65.7-12.1-121.6-55.1-150.1-115.5
	c-9.3-19.7-20.7-38.5-34.2-52.5c-20.9-21.5-46.9-31.4-78.2-15.2c-13.1,6.8-18.9,20.2-19.3,37.8c-0.5,24.8,9.8,58.1,23.7,91.2
	c32.1,76.7,105.7,127.8,188.8,131c67.8,2.6,138.9,5.4,138.9,5.4c1.7,0.1,3.1-1.3,3.2-3C1266.9,1154.3,1265.6,1152.9,1263.9,1152.8
	L1263.9,1152.8z" class="st1"></path>
<path d="M1284.6,1096c20.1-12.4,44.2-17.1,67-8.8c4.8,1.8,11.9,6.2,16.2,11.5c2.2,2.7,3.7,5.7,3.3,8.6
	c-0.3,1.9-1.4,3.7-3.5,5.4c-4,3.4-8.2,2.9-12.2,1.1c-5-2.2-9.7-6.1-14.1-8.6c-12.2-6.9-26.4-7.9-38.8-0.8c-1.5,0.8-2,2.7-1.2,4.2
	c0.8,1.5,2.7,2,4.2,1.2c10.5-5.9,22.4-4.9,32.7,0.9c4.5,2.5,9.5,6.5,14.6,8.8c6.1,2.7,12.4,3.3,18.7-2c3.4-2.9,5.1-6.1,5.6-9.2
	c0.5-3.1-0.2-6.3-1.9-9.4c-4.2-7.9-14.8-15-21.7-17.5c-24.6-9-50.7-4-72.4,9.3c-1.5,0.9-1.9,2.8-1,4.2
	C1281.2,1096.5,1283.1,1096.9,1284.6,1096L1284.6,1096z" class="st1"></path>
<path d="M1304.5,1110.6c18,5.3,38.1,15.6,43.4,34.8c1.3,4.8,2.5,9.7,0.8,14.5c-2.3,6.4-9.2,11.4-15.1,6.6
	c-2.1-1.8-3-4.8-3.7-7.8c-0.9-3.9-1.4-8-2.4-11.1c-2.5-7.4-8.1-13.2-13.1-18.9c-1.1-1.3-3.1-1.4-4.4-0.3c-1.3,1.1-1.4,3.1-0.3,4.4
	c4.5,5.2,9.7,10.2,11.9,16.8c1.2,3.6,1.6,8.6,2.9,13c1,3.6,2.6,6.7,5.2,8.8c9.5,7.9,21.3,1,24.9-9.2c2.1-6.1,1-12.2-0.6-18.2
	c-5.9-21.2-27.7-33.1-47.6-39c-1.6-0.5-3.4,0.5-3.8,2.1C1302,1108.4,1302.9,1110.1,1304.5,1110.6L1304.5,1110.6z" class="st1"></path>
<path d="M1308.8,1131.2c4.3,11.7,7.4,20.3,0.6,32.2c-1.1,1.9-3,4.1-5.2,5.4c-1.7,1-3.6,1.5-5.4,0.4
	c-1.3-0.8-1.5-2.5-1.7-4.2c-0.3-2.7-0.1-5.6-0.3-7.8c-0.9-7.7-4.5-14.6-8.6-21.1c-0.9-1.4-2.8-1.9-4.3-1c-1.4,0.9-1.9,2.8-1,4.3
	c3.6,5.7,6.9,11.7,7.7,18.5c0.3,2.6-0.1,6.4,0.6,9.6c0.6,3,1.9,5.5,4.4,7c3.2,2,6.6,1.9,9.7,0.6c4-1.6,7.6-5.4,9.5-8.7
	c7.9-13.8,4.9-23.8-0.2-37.4c-0.6-1.6-2.4-2.4-4-1.8C1309,1127.8,1308.2,1129.6,1308.8,1131.2L1308.8,1131.2z" class="st1"></path>
<path d="M1839.6,1180.7c47.1-81.6,19.2-186-62.5-233.1c-81.6-47.1-186-19.2-233.1,62.5L1839.6,1180.7z" class="st2"></path>
<path d="M1016.6,970.7c-44.3-76.7-142.4-103-219.2-58.7c-76.7,44.3-103,142.4-58.7,219.2L1016.6,970.7z" class="st0"></path>
<path d="M1850.7,824.9c0,0-70.7,29.9-118.1-13.4c-50-45.7-22.2-77.4-3.5-79.3C1784.2,726.4,1850.7,824.9,1850.7,824.9
	L1850.7,824.9z" class="st3"></path>
<path d="M1520.1,1260.1l-73.7,38.7c-16.7,8.8-31.6,20.2-43.3,34.6c-11.5,14.2-20.8,30.5-25.8,48.5
	c-5,17.9-6.9,36.3-4.5,54.3c2.4,17.9,7.8,35.4,17.2,51.2l161.6,270.4l17.6,31.7l63.4-35.2l-17.6-31.7l-143.8-280.2
	c-2.5-4.9-3.4-10.3-3.7-15.7c-0.4-5.2,1-10.4,2.7-15.4c1.7-4.9,4.9-8.9,8.4-12.7c3.3-3.6,7.7-6,12.3-8l76-33.8l48.3-23.4l-46.8-96.6
	L1520.1,1260.1z" class="st4"></path>
<path d="M1647.9,1335.2l-63.7,120.5c-6.2,11.7-10.6,24.2-11.6,37.1c-1.1,12.8-0.3,25.9,3.9,38.4
	c4.1,12.4,10,24,18.5,33.5c8.4,9.5,18.2,17.8,29.9,23.4l208.9,98.8l32.1,16.8l33.5-64.3l-32.1-16.8l-200.6-114.7l-0.4-2.7l1.5-0.9
	l72.9-115.2l26.9-46.4l-92.9-53.8L1647.9,1335.2z" class="st4"></path>
<polygon points="1603.5,1858.4 1596.4,1840.7 1589,1816.2 1638,1801.4 1645.4,1825.9 1652.4,1859.9 1657.6,1877 
	1588.4,1911.1 1573.5,1919.8 1556.1,1889.9 1571.1,1881.2" class="st2"></polygon>
<path d="M1574.2,1945.2l89.4-46.1c2.7-1.4,3.8-4.8,2.4-7.5c-1.4-2.7-4.8-3.8-7.5-2.4l-89.4,46.1
	c-2.7,1.4-3.8,4.8-2.4,7.5C1568.1,1945.5,1571.5,1946.6,1574.2,1945.2L1574.2,1945.2z" class="st3"></path>
<path d="M1592.9,1840.4c4.4-0.6,8.5-2.4,12.8-3.1c3-0.5,5.1-3.3,4.6-6.4c-0.5-3-3.3-5.1-6.4-4.6
	c-4.3,0.7-8.4,2.4-12.7,3.1c-3,0.4-5.1,3.3-4.7,6.3C1587,1838.7,1589.8,1840.8,1592.9,1840.4L1592.9,1840.4z" class="st3"></path>
<path d="M1599.1,1859.6c4.7,0,9.4,0.2,14.1,0.1c3.1-0.1,5.5-2.7,5.4-5.7c-0.1-3.1-2.7-5.5-5.7-5.4
	c-4.6,0.2-9.2-0.1-13.9-0.1c-3.1,0-5.5,2.5-5.5,5.6C1593.5,1857.2,1596,1859.7,1599.1,1859.6L1599.1,1859.6z" class="st3"></path>
<polygon points="1935.7,1724.4 1918.2,1716.9 1895.6,1704.8 1919.8,1659.7 1942.3,1671.8 1971.4,1690.9 1987.1,1699.3 
	1962.3,1772.4 1957.8,1789 1924.5,1780.2 1928.9,1763.5" class="st2"></polygon>
<path d="M1976.4,1806.5l30.6-95.8c0.9-2.9-0.7-6-3.6-7c-2.9-0.9-6,0.7-7,3.6l-30.6,95.8c-0.9,2.9,0.7,6,3.6,7
	C1972.3,1811,1975.4,1809.4,1976.4,1806.5L1976.4,1806.5z" class="st3"></path>
<path d="M1915.5,1719.2c2.6-3.5,4.3-7.7,6.9-11.3c1.8-2.5,1.2-6-1.2-7.7c-2.5-1.8-6-1.2-7.7,1.2
	c-2.5,3.5-4.2,7.6-6.8,11.1c-1.8,2.4-1.3,5.9,1.1,7.8C1910.2,1722.2,1913.6,1721.6,1915.5,1719.2L1915.5,1719.2z" class="st3"></path>
<path d="M1933.5,1728.4c3.3-3.4,6.8-6.5,10-9.9c2.1-2.2,2-5.7-0.2-7.8c-2.2-2.1-5.7-2-7.8,0.2c-3.2,3.4-6.6,6.4-9.9,9.7
	c-2.1,2.2-2.1,5.7,0.1,7.8C1927.8,1730.6,1931.3,1730.6,1933.5,1728.4L1933.5,1728.4z" class="st3"></path>
<polygon points="757.3,1855.3 775.1,1879.1 789.4,1894.6 758.4,1923.3 744,1907.8 703.6,1872.3 689,1856.5 
	722.4,1800.5 740.3,1774.7 791.7,1810.5 773.8,1836.2" class="st0"></polygon>
<path d="M760,1944.2l-80.1-72.5c-2.1-1.9-5.4-1.8-7.4,0.4c-1.9,2.1-1.8,5.4,0.4,7.4L753,1952c2.1,1.9,5.4,1.8,7.4-0.4
	C762.3,1949.5,762.1,1946.2,760,1944.2L760,1944.2z" class="st3"></path>
<path d="M784.3,1826.8c-4.9-2.4-9.2-6.1-14-8.6c-2.6-1.3-5.7-0.3-7,2.3c-1.3,2.6-0.3,5.7,2.3,7
	c4.9,2.5,9.2,6.2,14.2,8.7c2.6,1.3,5.7,0.2,7-2.4C787.9,1831.2,786.9,1828.1,784.3,1826.8L784.3,1826.8z" class="st3"></path>
<path d="M767.8,1846.8c-5.5-1.8-11.2-3.3-16.7-5.3c-2.7-1-5.7,0.4-6.7,3.1c-1,2.7,0.4,5.7,3.1,6.7
	c5.5,2,11.3,3.5,16.9,5.4c2.7,0.9,5.7-0.6,6.6-3.3C772,1850.7,770.6,1847.7,767.8,1846.8L767.8,1846.8z" class="st3"></path>
<polygon points="1348.5,1694.2 1374.3,1679.4 1391.4,1667.1 1416.1,1701.4 1399,1713.8 1358.8,1749.6 1341.4,1762.1 
	1289.8,1722.1 1266.5,1701.2 1308.2,1654.6 1331.6,1675.4" class="st0"></polygon>
<path d="M1437.1,1702.4l-81.7,70.6c-2.2,1.9-2.4,5.2-0.5,7.3c1.9,2.2,5.2,2.4,7.4,0.5l81.7-70.6
	c2.2-1.9,2.4-5.2,0.5-7.3C1442.5,1700.8,1439.3,1700.5,1437.1,1702.4L1437.1,1702.4z" class="st3"></path>
<path d="M1323.5,1663.9c-3,4.6-7.2,8.3-10.3,12.9c-1.6,2.4-1,5.6,1.4,7.2c2.4,1.6,5.6,1,7.2-1.4
	c3.1-4.6,7.3-8.3,10.3-13c1.6-2.4,0.9-5.6-1.5-7.2C1328.3,1660.8,1325.1,1661.5,1323.5,1663.9L1323.5,1663.9z" class="st3"></path>
<path d="M1341.4,1682.7c-2.5,5.3-4.7,10.7-7.3,15.9c-1.3,2.6-0.3,5.7,2.3,7c2.6,1.3,5.7,0.3,7-2.3
	c2.7-5.3,4.8-10.8,7.4-16.1c1.2-2.6,0.1-5.7-2.4-6.9C1345.7,1679,1342.6,1680.1,1341.4,1682.7L1341.4,1682.7z" class="st3"></path>
<polygon points="1543.5,1246.5 1675.1,1418.5 1740.9,1384.6 1793.8,1308.5 1583.3,1231.1" class="st3"></polygon>
<path d="M1622.2,1137.1l-53,54.8c-0.9,1-2.3,1.4-3.6,1.1c-1.3-0.2-2.4-1.1-2.9-2.3l-36-84.4c-0.9-2,0.1-4.3,2.1-5.2
	c2-0.9,4.3,0.1,5.2,2.1l33.7,78.9l53.2-55.1c1-1,2.3-1.4,3.7-1.1c1.3,0.3,2.4,1.3,2.9,2.5l30,83.8l58.9-59.7
	c0.9-0.9,2.2-1.3,3.5-1.1c1.3,0.2,2.4,1,2.9,2.2l45.8,94.8c1,2,0.1,4.3-1.8,5.3c-2,1-4.3,0.1-5.3-1.8l-43.4-89.7l-59.4,60.1
	c-1,1-2.3,1.4-3.7,1.1c-1.3-0.3-2.4-1.3-2.9-2.5L1622.2,1137.1z" class="st1"></path>
<path d="M871.6,1125.6c9.7-11.4,16.6-26.2,17.6-45.4c0.1-2,1.8-3.6,3.9-3.5c2,0.1,3.6,1.8,3.5,3.9
	c-1.2,21.9-9.3,38.7-20.7,51.3c10.2,17.9,6.7,37-2.5,53.4c-9.3,16.8-24.4,30.7-35.5,37.2c-5.1,3-10.5,4.3-15.8,6.4
	c-1.9,0.7-4-0.2-4.8-2.1c-0.8-1.9,0.2-4,2.1-4.8c4.9-1.9,10-3,14.7-5.8c10.2-6.1,24.2-19,32.8-34.5c7.6-13.6,11.1-29.4,3.5-44.3
	c-10.1,9.4-21.9,16.1-33.3,20.6c-5.9,2.3-13.2,5.1-20.1,5.3c-7.8,0.3-15.3-2.4-20.3-11.6c-3.1-5.8-2.1-11.9,1-17.4
	c4.1-7.3,11.7-13.4,15.5-15.5C830.6,1109.1,856.6,1107.4,871.6,1125.6L871.6,1125.6z M866.5,1131c-12.5-16-34.9-14.1-49.6-5.8
	c-3.1,1.8-9.4,6.7-12.7,12.7c-1.8,3.3-2.8,6.9-0.9,10.3c4.1,7.5,10.6,8.4,17,7.4c5-0.8,10-2.8,14.2-4.5
	C845.5,1146.8,857,1140.3,866.5,1131L866.5,1131z" class="st1"></path>
<path d="M1546.8,558.2c-1.4-20.9-6.8-44.8-20.2-61.5c-2.3-2.8-7.1-8.1-11.9-10.3c-4.3-2-8.6-2-12.2,1.8
	c-2.2,2.3-3.3,5.3-3.7,8.4c-0.5,4.1,0.3,8.6,1.2,12.2c3.2,12.2,7.7,23.9,10.6,36.1c0.4,1.8,2.2,2.9,4,2.5c1.8-0.4,2.9-2.2,2.5-4
	c-2.9-12.3-7.5-24.1-10.7-36.3c-0.6-2.4-1.2-5.3-1.2-8.1c0.1-2.3,0.5-4.6,2-6.2c1.3-1.4,2.9-1,4.4-0.3c3.9,1.8,7.7,6.2,9.5,8.5
	c12.6,15.6,17.4,38.1,18.7,57.7c0.1,1.8,1.7,3.2,3.6,3.1C1545.5,561.7,1546.9,560.1,1546.8,558.2L1546.8,558.2z" class="st1"></path>
<path d="M1532.6,570.1c-2.6-6.3-5.2-12.7-8.9-18.5c-3.7-5.9-10-10.6-16.4-12.5c-4.7-1.4-9.3-1.2-13.1,0.8
	c-4.1,2.1-7.4,6.4-8.5,13.8c-0.9,6.4,1.2,13.1,5.2,19.2c5.5,8.6,14.5,16,21.9,19.8c2.9,1.5,7.8,3.3,12.3,3.6
	c3.7,0.2,7.1-0.7,9.4-3.1c1.3-1.3,1.2-3.5-0.1-4.7c-1.3-1.3-3.5-1.2-4.7,0.1c-1,1-2.6,1.1-4.2,1.1c-3.5-0.2-7.4-1.7-9.6-2.9
	c-6.5-3.3-14.4-9.9-19.3-17.4c-3-4.7-4.9-9.7-4.2-14.6c0.7-4.6,2.4-7.5,4.9-8.8c2.4-1.2,5.2-1.1,8.1-0.3c4.9,1.5,9.8,5.1,12.6,9.6
	c3.5,5.5,5.9,11.5,8.4,17.5c0.7,1.7,2.7,2.5,4.4,1.8C1532.5,573.8,1533.3,571.8,1532.6,570.1L1532.6,570.1z" class="st1"></path>
<path d="M1488.4,562.6c-3-0.4-6.1-0.9-9-0.6c-10.5,1.1-14.8,12.5-12.6,21.5c1.8,7.2,11.8,18.7,22.3,23.8
	c7.9,3.8,15.9,4,21.5-1.8c1.3-1.3,1.2-3.5-0.1-4.7c-1.3-1.3-3.5-1.2-4.7,0.1c-3.6,3.8-8.7,2.9-13.7,0.4
	c-8.7-4.2-17.3-13.5-18.8-19.4c-1.3-5.4,0.5-12.6,6.8-13.3c2.4-0.3,5,0.2,7.4,0.5c1.8,0.3,3.5-1,3.8-2.9
	C1491.5,564.6,1490.2,562.9,1488.4,562.6L1488.4,562.6z" class="st1"></path>
<path d="M1499.4,648.3c13.4,96.6,39.7,196.5,67.7,290.3c0.5,1.7,2.4,2.7,4.1,2.2c1.7-0.5,2.7-2.4,2.2-4.1
	c-27.9-93.5-54.1-193-67.5-289.3c-0.2-1.8-1.9-3-3.7-2.8C1500.4,644.9,1499.2,646.5,1499.4,648.3L1499.4,648.3z" class="st1"></path>
<path d="M1540.4,558.9c39.1,106.3,82,234.8,113.7,355.6c0.5,1.8,2.3,2.8,4,2.3c1.8-0.5,2.8-2.3,2.3-4
	c-31.8-121-74.8-249.8-113.9-356.2c-0.6-1.7-2.5-2.6-4.2-1.9C1540.6,555.4,1539.7,557.2,1540.4,558.9L1540.4,558.9z" class="st1"></path>
<path d="M1736.5,805.9c-22.6,24.7-26.7,47.9-20,65.2c6.8,17.5,24.9,29.3,47.5,30.7c7.6,0.5,15.8-1.5,22.9-3.9
	c16.7-5.7,27.3-16.5,35.2-29.6c7.6-12.6,12.8-27.3,18.9-41.4c0.7-1.7,0-3.7-1.7-4.4c-1.7-0.7-3.7,0-4.4,1.7
	c-6,13.9-11,28.3-18.5,40.6c-7.1,11.8-16.6,21.6-31.6,26.7c-6.4,2.2-13.6,4-20.3,3.6c-19.7-1.2-35.7-11.1-41.7-26.4
	c-6-15.5-1.6-36.1,18.7-58.2c1.3-1.4,1.2-3.5-0.2-4.7C1739.8,804.4,1737.7,804.5,1736.5,805.9L1736.5,805.9z" class="st1"></path>
<path d="M895.6,784.5c13.7,29.5,5.3,66.6-26.7,68.8c-5.4,0.4-11.1-1.3-16.1-3.3c-12.1-4.8-19.6-14-25.4-25.1
	c-6-11.6-10.1-25.2-14.9-38.3c-0.6-1.6-2.4-2.4-4-1.8c-1.6,0.6-2.4,2.4-1.8,4c5,13.3,9.1,27.1,15.2,38.9c6.4,12.4,15,22.5,28.6,27.9
	c5.9,2.3,12.6,4.2,18.8,3.7c36.4-2.6,47.4-44,31.9-77.6c-0.7-1.5-2.6-2.2-4.1-1.5C895.5,781.1,894.9,782.9,895.6,784.5L895.6,784.5z" class="st1"></path>
<path d="M809.7,784.8c-7.1-0.3-15.1-1.6-20.2-6.9c-7.3-7.5-7.6-22,3.1-26.4c4.8-2,10-0.8,15-0.5
	c1.7,0.1,3.2-1.2,3.3-2.9c0.1-1.7-1.2-3.2-2.9-3.3c-5.9-0.4-12-1.4-17.8,0.9c-14.7,6-15.3,26-5.2,36.4c6.2,6.4,15.8,8.4,24.4,8.7
	c1.7,0.1,3.1-1.3,3.2-3C812.8,786.3,811.4,784.8,809.7,784.8L809.7,784.8z" class="st3"></path>
<path d="M1852.3,824.9c0,0-49.2-43.7-63-59.1c-40.9-45.6,37.1-86.2,58.1-24.1C1859,776.1,1853.4,803.1,1852.3,824.9
	L1852.3,824.9z" class="st3"></path>
<path d="M1818.3,863.9c23.3-12.2,52.1-30.3,62.7-54.5c5.2-11.9,1.4-29-15.2-21.7c-13.1,5.7-19.7,18.2-25.9,29.9
	C1833.3,829.9,1818.3,863.9,1818.3,863.9L1818.3,863.9z" class="st3"></path>
<path d="M1942.5,1323.6c36.8-48.3,50.2-118.7,38.9-179.1c-12.5-66.6-55.9-128.5-119.2-149.2
	c-30.1-9.9-62.5,2.3-74.1,31.9c-11.6,29.4,5,58.2,31.5,75.2c40.4,26,60.8,37.2,73.8,70.9c14.7,38.2,17.5,81.8-0.7,118.1
	c-0.8,1.7-0.2,3.7,1.5,4.6c1.7,0.8,3.7,0.2,4.6-1.5c19.1-37.9,16.4-83.7,1-123.6c-13.5-35.1-34.4-47.1-76.4-74.2
	c-23.7-15.3-39.2-40.7-28.8-67c10.3-26.2,39-36.7,65.7-28c61,19.9,102.6,79.8,114.6,143.9c11,58.5-1.9,126.9-37.6,173.7
	c-1.1,1.5-0.9,3.6,0.6,4.8C1939.2,1325.4,1941.3,1325.1,1942.5,1323.6L1942.5,1323.6z" class="st1"></path>
<path d="M1867.5,1335.5c-4.3-0.3-8.8-0.6-13.1-1.3c-6.8-1.2-13.3-3.6-18.3-8.7c-7.9-8.1-4.5-22.3,4.7-27.4
	c5.4-3,12.7-2.6,18.5-1.8c9,1.2,18.7,3.3,27.4,6.3c1.8,0.6,2.7,2.5,2.1,4.3c-0.6,1.8-2.5,2.7-4.3,2.1c-8.3-2.8-17.5-4.9-26.1-6
	c-4.5-0.6-10.1-1.3-14.3,1.1c-5.6,3.1-8,11.7-3.1,16.7c4,4.1,9.2,5.8,14.6,6.8c6.1,1,12.4,1.1,18.2,1.7c1.4,0.2,2.1,0.8,2.6,1.5
	c0.5,0.6,0.7,1.4,0.7,2.3c0,0.5-0.2,1.2-0.7,2c-0.3,0.5-1.2,1.3-1.5,1.8c-0.6,0.9-1.2,1.8-1.8,2.7c-2.1,3-4.4,5.8-6.8,8.5
	c-1.7,1.9-3.5,3.7-5.2,5.6c-3.5,3.9-9.3,10.8-11.8,17.9c-1.4,3.8-1.8,7.7,0.6,10.8c0.7,0.9,1.9,1.2,3.1,1.3c1.7,0.1,3.5-0.2,4.8-0.7
	c3.9-1.4,7.3-4.4,10.6-7.7c3.6-3.6,7-7.7,10.2-10.9c2.1-2.1,4-4.4,6.1-6.6c0.1-0.1,1.5-1.8,1.9-2.1c1.6-1.4,3.2-0.8,3.6-0.6
	c0.9,0.4,1.5,1,1.8,1.5c0.5,0.8,0.7,1.7,0.5,2.7c-0.1,0.7-0.6,1.7-1.5,2.7c-0.6,0.6-1.7,1.4-2.1,2c-1.8,2.5-3.3,5.2-4.9,7.8
	c-2.4,4.3-5.5,9-7.3,13.9c-1.5,4.2-2,8.5,0.4,12.9c0.6,1,1.5,1.2,2.4,1.2c1.1-0.1,2.3-0.4,3.3-0.9c6.5-2.6,10.6-10,14.5-15.7
	c1.6-2.4,3.3-4.9,4.6-7.5c0.5-1,1-2.1,1.5-3.1c0.3-0.5,1-2,1.1-2.2c1.5-2,3.4-1.3,4.1-1.1c0.3,0.1,2.8,1.2,1.9,4.2
	c-2.1,7-5.8,15-7.4,22.8c-1.4,6.8-1,13.5,4.7,19.1c2.7,2.7,6,1.6,8.9-0.3c3.9-2.6,7.2-6.9,9-10.2c8.3-15.6,12.2-35.2,6.5-52.3
	c-0.8-2.5-1.8-6.4-3.3-9.8c-0.7-1.6-1.5-3.1-2.6-3.9c-1.6-1-2-3.2-0.9-4.7c1-1.6,3.2-2,4.7-0.9c2,1.4,3.7,3.8,5.1,6.8
	c1.6,3.5,2.7,7.8,3.5,10.4c6.3,18.8,2.2,40.5-7,57.6c-2.6,4.9-8.3,11.7-14.3,14.4c-4.9,2.2-10,2.1-14.4-2.2
	c-7.2-7-8.3-15.3-6.8-23.8c-3,3.7-6.5,7-10.8,8.7c-5.1,2-11.1,2.3-14.3-3.4c-3.4-6.2-3-12.5-0.8-18.5c0.1-0.3,0.2-0.5,0.3-0.8
	c-3.2,2.9-6.7,5.4-10.4,6.8c-2.6,1-6.2,1.5-9.4,0.9c-2.5-0.5-4.8-1.7-6.3-3.7c-3.8-5-3.8-11.1-1.6-17.2c2.8-7.9,9.3-15.8,13.2-20.2
	c1.7-1.9,3.5-3.7,5.2-5.6C1863.4,1340.9,1865.5,1338.3,1867.5,1335.5L1867.5,1335.5z" class="st1"></path>
<path d="M1472.7,586.7c-2.3,0.1-4.8,1-6.5,2.6c-7.9,7-6.1,17.8-0.6,25.5c4.7,6.5,13.3,11.3,21.3,11.2
	c3.4,0,6.5-1.1,9.8-1.8c1.8-0.4,3-2.1,2.7-3.9c-0.4-1.8-2.1-3-3.9-2.7c-2.9,0.6-5.6,1.6-8.6,1.7c-6,0.1-12.3-3.6-15.8-8.4
	c-3.6-5-5.5-12-0.4-16.5c0.6-0.6,1.6-0.8,2.5-0.9c1.8-0.1,3.3-1.7,3.2-3.5C1476.2,588,1474.6,586.6,1472.7,586.7L1472.7,586.7z" class="st1"></path>
<path d="M851.2,1519.8c-19.7-10.1-134.2-73-180.1-192.7c-15.4-40-13-70.7-2.5-94.1c24.6-54.4,94.8-69.1,94.8-69.1
	c1.7-0.3,3.3,0.7,3.7,2.4c0.3,1.7-0.7,3.3-2.4,3.7c0,0-66.9,13.8-90.4,65.6c-10,22.2-12,51.3,2.6,89.3
	c49.4,128.9,179.9,190.8,179.9,190.8c0.8,0.4,1.3,1,1.6,1.8c0.3,0.8,0.2,1.7-0.2,2.4l-115,215l76.5,48.3l106.9-178.1
	c27.6-46,29.7-102.9,5.5-150.8c-36.2-71.8-84.2-166.8-84.2-166.8c-0.5-1.1-0.4-2.4,0.4-3.4l39.8-48.3c1.1-1.3,3-1.5,4.3-0.4
	c1.3,1.1,1.5,3,0.4,4.3l-38.5,46.8l83.3,165c25.1,49.8,22.9,108.9-5.8,156.7c-45.4,75.6-108.5,180.8-108.5,180.8
	c-0.4,0.7-1.1,1.2-1.9,1.4c-0.8,0.2-1.7,0-2.4-0.4l-81.6-51.6c-1.4-0.9-1.8-2.6-1.1-4.1L851.2,1519.8z" class="st1"></path>
<path d="M1286.4,1618.4L1082,1382.5c-42.1-48.5-68-112.5-98-162c-19.6-32.2-40.8-58.3-69.9-69.2c-1.6-0.6-2.4-2.4-1.8-4
	c0.6-1.6,2.4-2.4,4-1.8c30.3,11.4,52.6,38.2,73,71.8c29.9,49.2,55.5,112.9,97.4,161.2c112.8,130.1,206.1,237.8,206.1,237.8
	c1,1.1,1,2.7,0.1,3.9l-47.2,61.8c-0.5,0.7-1.3,1.1-2.1,1.2c-0.8,0.1-1.7-0.2-2.3-0.7L983.5,1470c-1.3-1.1-1.5-3-0.4-4.3
	c1.1-1.3,3-1.5,4.3-0.4l255.2,210.3L1286.4,1618.4z" class="st1"></path>
<path d="M795.4,732.7c0,15.7,49.6,53.3,103,50.5c48.1-2.5,55.6-80.3,0-94.1C832.7,672.8,795.4,732.7,795.4,732.7
	L795.4,732.7z" class="st3"></path>
<path d="M812.4,748.1c-4.9-0.2-9.7,0.5-14.5,1.6c-12.3,2.8-21.9,15-12.1,27c8,9.8,39.5,13.5,28.1,32.9
	c-7.9,13.3-27.2,11.8-39.8,8.8c-30.1-7.1-51.7-32.6-56.2-61.8c-4.6-29.3,20.7-59.4,49.2-65.7c24.5-5.4,55.9,3.1,62.3,29.9
	L812.4,748.1z" class="st3"></path>
<path d="M746.5,779.4c-28.5,1.6-52.8,7.2-74.6,26.3c-24.7,21.6-28.2,62.2,3.1,80.1c22.7,13,54.7,7,75-7.8
	c7.1-5.1,14.4-10.7,19.5-17.7c1.7-2.3,3-4.7,4.3-7.2c0.6-1.2,1.9-4.9,1.7-3.6c-1.9,9.6-2.7,19.7,3.9,27.9
	c14.2,17.8,42.4,6,48.8-11.9c7.8-21.8-3.3-39.7-12.3-58.4L746.5,779.4z" class="st3"></path>
<path d="M881.2,914.3c0,0.9,0,1.9-0.1,2.8c-0.4,4.1-2.2,9.3-5.4,12.7c-2.4,2.6-5.5,4.3-9.2,4.4
	c-8.1,0.1-13.2-4.6-16-11.3c-3.7-8.9-3.3-21.5-1.6-28.5c0.4-1.7,2.1-2.7,3.7-2.3c1.7,0.4,2.7,2.1,2.3,3.7c-1.5,6-2,16.9,1.3,24.6
	c1.8,4.3,4.9,7.6,10.2,7.6c2.5,0,4.3-1.6,5.7-3.6c1.6-2.4,2.6-5.4,2.8-7.9c0.2-2-0.1-4.1-0.3-6.2c-0.1-0.8-0.8-2.2-1-3.1
	c-0.2-0.9-0.1-1.7,0.1-2.2c0.3-0.9,0.8-1.5,1.5-1.9c0.6-0.3,1.5-0.6,2.8-0.2c0.9,0.3,1.8,0.9,2.8,1.8c1.3,1.2,2.7,3.1,3.6,4
	c2.8,2.7,5.7,5.4,9.5,6.7c2.5,0.9,5.5,1.2,8,0.6c1.3-0.3,2.4-0.8,3.1-1.8c0.8-1.1,0.9-2.6,0.4-4.5c-1.3-5.4-4.6-7.9-7.9-11.9
	c-1.1-1.3-0.9-3.3,0.4-4.3c1.3-1.1,3.3-0.9,4.4,0.4c4,4.8,7.6,7.9,9.1,14.4c1,4.2,0.2,7.3-1.4,9.5c-1.5,2.1-3.9,3.5-6.7,4.2
	c-3.6,0.9-7.9,0.5-11.5-0.8C887.7,920,884.3,917.3,881.2,914.3L881.2,914.3z" class="st5"></path>
<path d="M426.1,777.4c0,0,21.1,68,41.2,132.8c24.6,79.4,93.1,137.3,175.4,148.5c35.6,4.9,70.4,6.2,94.2-0.7
	c16.9-4.9,28.4-14,31.6-28.4c7.6-34.4-8.7-56.9-34.9-71.6c-16.9-9.5-38.1-15.6-59.5-19.4c-65.8-11.9-121.8-54.7-150.4-115.1
	c-20-41.7-37.9-79.4-37.9-79.4c-0.7-1.5-2.6-2.2-4.1-1.5c-1.5,0.7-2.2,2.6-1.5,4.1c0,0,17.9,37.6,37.9,79.4
	c29.5,62.1,87.2,106.3,154.9,118.5c20.7,3.8,41.2,9.6,57.6,18.8c23.8,13.3,38.7,33.6,31.9,64.9c-2.7,12.3-12.8,19.6-27.2,23.8
	c-23.2,6.7-57.1,5.3-91.7,0.5c-80-10.8-146.4-67.1-170.3-144.2C453.1,843.6,432,775.6,432,775.6c-0.5-1.6-2.2-2.5-3.9-2
	C426.5,774,425.6,775.8,426.1,777.4L426.1,777.4z" class="st1"></path>
<path d="M426.2,770.6c-23,5.2-47.4,1.8-66.3-13.5c-4-3.2-9.3-9.7-11.6-16.2c-1.2-3.3-1.7-6.6-0.3-9.2c0.9-1.7,2.5-3,5-4
	c4.9-1.9,8.7,0,11.9,2.9c4,3.7,7.2,8.9,10.5,12.7c9.3,10.5,22.4,16,36.4,13.4c1.7-0.3,2.8-1.9,2.5-3.6c-0.3-1.7-1.9-2.8-3.6-2.5
	c-11.8,2.2-22.8-2.6-30.6-11.4c-3.4-3.8-6.8-9.2-10.9-13.1c-4.9-4.6-10.7-7.1-18.3-4.2c-4.2,1.6-6.8,4.1-8.3,6.9
	c-1.5,2.8-1.8,6.1-1.3,9.5c1.4,8.9,9.1,19,14.8,23.6c20.4,16.5,46.7,20.3,71.5,14.7c1.7-0.4,2.7-2,2.3-3.7
	C429.5,771.2,427.9,770.2,426.2,770.6L426.2,770.6z" class="st1"></path>
<path d="M412.1,750.3c-15.3-10.9-31-27.1-29.8-47c0.3-5,0.8-10,4-14c4.2-5.3,12.4-7.8,16.4-1.3c1.4,2.4,1.3,5.5,1,8.6
	c-0.4,4-1.3,8-1.3,11.3c-0.1,7.8,3.4,15.1,6.3,22.2c0.6,1.6,2.4,2.3,4,1.7c1.6-0.6,2.3-2.4,1.7-4c-2.6-6.4-5.9-12.8-5.8-19.8
	c0-3.8,1.3-8.7,1.5-13.2c0.2-3.7-0.3-7.2-2-10c-6.4-10.5-19.8-7.9-26.6,0.7c-4,5-4.9,11.2-5.3,17.5c-1.3,22,15.5,40.3,32.4,52.4
	c1.4,1,3.3,0.7,4.3-0.7C413.8,753.2,413.5,751.3,412.1,750.3L412.1,750.3z" class="st1"></path>
<path d="M414.7,729.5c-0.3-12.5-0.4-21.6,9.9-30.6c1.7-1.5,4.1-2.9,6.7-3.5c1.9-0.4,3.9-0.3,5.3,1.4
	c1,1.2,0.6,2.9,0.3,4.5c-0.6,2.7-1.8,5.4-2.2,7.4c-1.7,7.6-0.5,15.3,1.2,22.7c0.4,1.7,2,2.7,3.7,2.3c1.7-0.4,2.7-2,2.3-3.7
	c-1.5-6.6-2.7-13.3-1.2-20c0.6-2.5,2.1-6,2.6-9.2c0.4-3,0-5.8-1.9-8c-2.4-2.9-5.6-3.9-9-3.8c-4.3,0.2-8.9,2.6-11.8,5.2
	c-11.9,10.5-12.3,20.9-12,35.4c0,1.7,1.5,3.1,3.2,3S414.8,731.2,414.7,729.5L414.7,729.5z" class="st1"></path>
<path d="M540.4,1336.8c-217.2,103.8-297.5,341.7-260.6,532.1c18.5,95.5,66.5,179,141.3,228
	c74.8,48.9,176.5,63.4,302.7,20.3c158.6-54.2,265.7-203.2,364.1-338.9c1.2-1.6,0.8-3.8-0.8-5c-1.6-1.2-3.8-0.8-5,0.8
	c-97.5,134.5-203.4,282.6-360.6,336.3c-123.6,42.2-223.2,28.4-296.5-19.5c-73.3-47.9-120.1-129.8-138.2-223.4
	c-36.4-187.6,42.7-422,256.7-524.3c1.8-0.9,2.5-3,1.7-4.8C544.3,1336.7,542.2,1336,540.4,1336.8L540.4,1336.8z" class="st3"></path>
<path d="M2071.7,1104.1c100.6-59.1,226.7,19.4,234.4,131.3c7.5,109.2-63,191.4-140.5,258
	c-93.1,80-223.8,107.1-337.7,142.8c-215.3,67.6-480.4,178-593.9,389.2c-27.5,51.2-20.9,109.8,11.7,156.2c30.3,43,83,75.3,151.9,80.8
	c102.2,8.1,240.3-43.1,392.2-207.9c1.3-1.4,1.2-3.6-0.2-4.8c-1.4-1.3-3.6-1.2-4.8,0.2c-149.9,162.6-285.8,213.8-386.6,205.7
	c-66.5-5.3-117.6-36.4-146.8-77.9c-31.1-44.2-37.5-100.2-11.3-149c112.7-209.7,376.2-318.8,589.9-385.9
	c114.7-36,246.3-63.6,340.1-144.2c79.1-68,150.6-152.2,142.9-263.7c-8-116.8-139.7-198.4-244.7-136.8c-1.6,1-2.2,3.1-1.2,4.7
	C2067.9,1104.5,2070,1105,2071.7,1104.1L2071.7,1104.1z" class="st3"></path>
<path d="M1242.6,635c0.4-1.2,0.1-2.6-0.8-3.5c-0.9-0.9-2.3-1.2-3.5-0.8l-84,28c-1.1,0.4-2,1.3-2.3,2.5
	c-0.3,1.2,0.1,2.4,0.9,3.2l56,56c0.8,0.8,2.1,1.2,3.2,0.9c1.2-0.3,2.1-1.1,2.5-2.3L1242.6,635z M1161.7,663.4l48.2,48.2l24.1-72.3
	L1161.7,663.4z" class="st3"></path>
<polygon points="1038.4,2046.2 1131.5,2063.8 1056.1,2139.2" class="st3"></polygon>
<polygon points="412.3,1268.3 350.5,1340.1 322.8,1237" class="st0"></polygon>
</svg>