<svg xml:space="preserve" style="enable-background:new 0 0 2094.4 2104.4;" viewBox="0 0 2094.4 2104.4" y="0px" x="0px" xmlns:xlink="http://www.w3.org/1999/xlink" xmlns="http://www.w3.org/2000/svg" version="1.1">
<style type="text/css">
	.st0{fill:#FFFFFF;stroke:#000000;stroke-width:5;stroke-miterlimit:10;}
	.st1{fill:none;stroke:#000000;stroke-width:5;stroke-miterlimit:10;}
	.st2{fill:#FFC60A;stroke:#000000;stroke-width:5;stroke-miterlimit:10;}
	.st3{fill:#F38598;}
	.st4{fill:#00AB93;}
	.st5{fill:#FFFFFF;}
	.st6{fill:#659ED4;}
	.st7{fill:#659ED4;stroke:#231F20;stroke-width:5;stroke-miterlimit:10;}
	.st8{fill:none;stroke:#000000;stroke-width:8;stroke-linecap:round;stroke-miterlimit:10;}
	.st9{fill:#EE3535;}
	.st10{fill:none;stroke:#000000;stroke-width:3;stroke-miterlimit:10;}
	.st11{fill:#FFC60A;}
	.st12{fill:none;stroke:#000000;stroke-width:5;stroke-linecap:round;stroke-miterlimit:10;}
	.st13{fill:#FFFFFF;stroke:#000000;stroke-width:3;stroke-linecap:round;stroke-miterlimit:10;}
	.st14{fill:none;stroke:#FBA92D;stroke-width:3;stroke-miterlimit:10;}
	.st15{fill:#345EAB;}
	.st16{fill:#FFFFFF;stroke:#000000;stroke-width:3;stroke-miterlimit:10;}
</style>
<g id="Background">
</g>
<g id="Graphic">
	<g>
		<rect height="1387.4" width="1044.4" class="st0" y="124.8" x="456.7"></rect>
		<line y2="215" x2="1501.2" y1="215" x1="456.7" class="st1"></line>
		<g>
			<circle r="14" cy="168.8" cx="509.7"></circle>
			<circle r="14" cy="168.8" cx="559.1"></circle>
			<circle r="14" cy="168.8" cx="608.5"></circle>
		</g>
		<g>
			<rect height="246.7" width="246.7" class="st2" y="695.2" x="1102.3"></rect>
			<line y2="941.8" x2="1102.3" y1="695.2" x1="1348.9" class="st1"></line>
			<line y2="941.8" x2="1348.9" y1="695.2" x1="1102.3" class="st1"></line>
		</g>
		<g>
			<rect height="246.7" width="246.7" class="st1" y="950.5" x="548.1"></rect>
			<line y2="1197.2" x2="548.1" y1="950.5" x1="794.7" class="st1"></line>
			<line y2="1197.2" x2="794.7" y1="950.5" x1="548.1" class="st1"></line>
		</g>
		<path d="M1248.8,417.4h-658c-9.8,0-17.8-8-17.8-17.8v-33.5c0-9.8,8-17.8,17.8-17.8h658c9.8,0,17.8,8,17.8,17.8v33.5
			C1266.6,409.5,1258.6,417.4,1248.8,417.4z" class="st3"></path>
		<line y2="733.3" x2="998.2" y1="733.3" x1="734.6" class="st1"></line>
		<line y2="788.4" x2="998.2" y1="788.4" x1="734.6" class="st1"></line>
		<line y2="843.4" x2="998.2" y1="843.4" x1="734.6" class="st1"></line>
		<line y2="898.5" x2="998.2" y1="898.5" x1="734.6" class="st1"></line>
		<rect height="143.5" width="443.2" class="st1" y="472.1" x="899.5"></rect>
		<rect height="169.7" width="553.9" class="st4" y="1029.4" x="837.1"></rect>
	</g>
	<g>
		<g>
			<path d="M1804.1,1751.7l38.5,33.3l-161,114.6c0,0-37.7-8.3-23.2-33.6c14.5-25.3,65.6-74.1,65.6-74.1L1804.1,1751.7z"></path>
			<g>
				<path d="M1737.2,1790.2c-5.5,0-9.7-0.5-11.6-0.7L1709,1763l72.3-44.6l20.1,33.5
					C1788.5,1785.2,1755.7,1790.2,1737.2,1790.2C1737.1,1790.2,1737.2,1790.2,1737.2,1790.2z" class="st5"></path>
				<path d="M1780.4,1721.9l18.1,30.3c-12.6,30.9-43.7,35.6-61.4,35.6c-4.4,0-8-0.3-10.1-0.5l-14.5-23.4L1780.4,1721.9 M1782.1,1715
					l-76.5,47.3l18.5,29.6c0,0,5.2,0.9,13.1,0.9c19.1,0,53.9-5.2,67-41.1L1782.1,1715L1782.1,1715z"></path>
			</g>
		</g>
		<polygon points="1488.7,1100.9 1568.5,1460.5 1701.5,1783 1808.2,1734.5 1738.7,1451.6 1724.3,1166.4" class="st6"></polygon>
		<g>
			<path d="M1483.1,1819.8l3.5,50.8l-194.7-33.6c0,0-20.6-32.6,7.5-40.1s98.8-5.6,98.8-5.6L1483.1,1819.8z"></path>
			<g>
				<path d="M1458,1823.1c-30.8,0-53.1-27.1-57.1-32.3l7.2-30.4l82.6,19.9l-9.6,37.9
					C1473.4,1821.4,1465.7,1823.1,1458,1823.1C1458,1823.1,1458,1823.1,1458,1823.1z" class="st5"></path>
				<path d="M1409.9,1763.4l77.7,18.7l-8.7,34.2c-6.9,2.9-13.9,4.3-20.9,4.3c-28.1,0-49.1-23.8-54.4-30.4L1409.9,1763.4
					 M1406.2,1757.3l-8,34c0,0,24.2,34.3,59.8,34.3c7.9,0,16.3-1.7,25.1-5.7l10.6-41.5L1406.2,1757.3L1406.2,1757.3z"></path>
			</g>
		</g>
		<path d="M1415.3,1109.3" class="st6"></path>
		<path d="M1700.9,1196.2l11-45.6l-223.2-49.7l-108.9,664.6l148.5,36.9l112.9-407
			C1700.6,1286.1,1700.9,1196.2,1700.9,1196.2z" class="st7"></path>
		<g>
			<g>
				<path d="M1240.1,783.8l36.2-20.4c8.8-4.9,19.7-3.9,27.4,2.5l147.7,123.4l-61.4,49l-70.3-80.5
					c-9.2,1-23.3-18.6-23.3-18.6l-3.8,3.5c-7.7,3.2-14.7-5.4-19.9-13.5c-5.2-8.1,0.4-13.9,0.4-13.9c-10-6.1-2-15.3-2-15.3
					c-5.7-2.6-4.4-8.1-4.4-8.1l-15,6.8c-4,1.8-8.6,2.2-12.8,0.7c-1.6-0.6-3-1.3-3.9-2.4c-1-1.3-1.2-2.9-1-4.6
					C1234.5,788.8,1236.8,785.6,1240.1,783.8z" class="st0"></path>
				<line y2="784.7" x2="1277.6" y1="792" x1="1266.6" class="st1"></line>
				<line y2="792.7" x2="1285.2" y1="800.1" x1="1271" class="st1"></line>
				<path d="M1273,815.5c0,0,10.8-6.6,15.1-5.3" class="st1"></path>
			</g>
			<g>
				<path d="M1638.1,588.5c39.7,22.8-3.9,103.2-3.9,103.2l10.6,65.9l-72.4-10.3l0-33.7c0,0-6.1-0.4-33.6-0.7
					c-27.6-0.3-8.1-51.2-8.1-51.2s-7.2-6.6-7.7-14.4c-0.4-7.7,15.3-7,17.9-32.7c0.9-8.6,3.8-15.6,7.3-21c6.4-10,17.7-15.8,29.5-15.6
					C1594.8,578.3,1623.7,580.2,1638.1,588.5z" class="st0"></path>
				<path d="M1638.1,588.5c-14.5-8.3-43.4-10.2-60.4-10.5c-1.9,0-3.8,0.1-5.6,0.3l0,0c0,0-7.7-13-12.4-13.3s-3.5,7.8-3.5,7.8
					s-7-6.2-14.4-4.2c-7.4,2,9.6,20.7,9.6,20.7l21,10l8.8,24.8l15.2,2.2l5.6,13.5c0,0,15-12.2,22.2-1.5c7.2,10.7-11.3,21.9-18.2,24
					l28.3,29.3C1634.3,691.7,1677.9,611.3,1638.1,588.5z"></path>
				<ellipse ry="2" rx="3" cy="627.8" cx="1550" transform="matrix(0.1403 -0.9901 0.9901 0.1403 710.8257 2074.3711)"></ellipse>
				<path d="M1549.7,615.5c0,0,5.8,0.6,9,3.3" class="st8"></path>
				<path d="M1526.9,673.7c0,0,12.7,9.4,23.8,1.3" class="st1"></path>
			</g>
			<path d="M1462.1,878.7l-43.1-18.6l-65.5,57l101.4,87.4l-20.7,169.6l330.3,12l-72.3-373.5c-4.1-36.7-32.5-66-69-71.2
				l-57.3-8.1l-11.4,17l0,0c-8-1.1-15.9,2.6-20.1,9.5L1462.1,878.7z" class="st9"></path>
			<path d="M1588.7,927.6l-71.8,93.9c-6.2,8.2-17.7,10.3-26.4,4.9l-35.5-21.9" class="st1"></path>
			<line y2="839.3" x2="1296.4" y1="829.8" x1="1291.9" class="st10"></line>
		</g>
	</g>
	<g>
		<path d="M456.7,462.6c0,0-114.6-12.1-211.2,93.7s211.2,289.4,211.2,289.4V462.6z" class="st11"></path>
		<g>
			<path d="M285.3,407.3l-11.6-34.1c0,0-17.1-34.7,23-52.2c40.2-17.5,61,9.1,61,9.1l42.3,85.7
				c6.1,11.6,3.1,25.9-7.1,33.9l-9.8,7.7l12.6,37.2l0,0c0,0,0,0.1,0,0.1c6.9,20.4-3.9,42.5-24.1,49.4c-20.2,6.8-42.2-4.2-49.1-24.6
				c0,0,0-0.1,0-0.1l-0.1,0l-25.2-74.5c0,0-17.9,3.9-26.2-16.2C262.8,408.6,285.3,407.3,285.3,407.3z" class="st0"></path>
			<path d="M352.3,365.9c0,0,17.6,19.2,14,24.3c-3.6,5.1-6.8,8.1-6.8,8.1" class="st12"></path>
			<ellipse ry="3.8" rx="3.8" cy="378.1" cx="335.1" transform="matrix(0.9472 -0.3206 0.3206 0.9472 -103.5352 127.3907)"></ellipse>
			<ellipse ry="3.8" rx="3.8" cy="361.3" cx="365.9" transform="matrix(0.9472 -0.3206 0.3206 0.9472 -96.5294 136.3618)"></ellipse>
			<line y2="365.8" x2="310.5" y1="353.1" x1="326.6" class="st8"></line>
			<line y2="341.9" x2="355.2" y1="340.7" x1="363.8" class="st8"></line>
			<path d="M371.6,412.8c0,0-14.8,9.3-24.3,1.4" class="st12"></path>
			<line y2="469.5" x2="364.4" y1="455.6" x1="385" class="st13"></line>
			<circle r="17.8" cy="378.1" cx="332.8" class="st14"></circle>
			<circle r="17.8" cy="359.1" cx="374.7" class="st14"></circle>
			<path d="M301.9,343.4c0,0,18.4,33.1-16.6,63.9c0,0-43-47.4-9.2-83.2s74.6-7.4,81.6,5.9C357.8,330,339,343.3,301.9,343.4z"></path>
			<path d="M276.1,324.1c0,0-17.7-35.8-40.3-24.5c-22.6,11.3-33.8,14.9-56.4-2.2c-22.6-17.1-46.7-33.2-46.7-33.2l-9.7,42.6
				l17.7,19.1l-27.4,0.8l-6.4,18c0,0,24.2,15.1,53.2,12.5c29-2.6,30.6-5.6,43.5,8.8c12.9,14.4,35.3-17.4,59.5-8.8L276.1,324.1z"></path>
			<line y2="407.3" x2="285.3" y1="388.7" x1="318.5" class="st14"></line>
		</g>
		<path d="M378.2,619.1c0,0,89.6,34.4,166.9,0v152.5c0,0-80.3,16.8-203.4-7.7" class="st2"></path>
		<g>
			<path d="M770,450.2l-32.6,51.2c-5.4,8.5-2.9,19.8,5.6,25.2c8.5,5.4,19.8,2.9,25.2-5.6l32.6-51.2L770,450.2z" class="st0"></path>
			<polygon points="782,401.5 815.8,348.4 825.2,354.4 817.9,375.2 831.2,358.2 858.6,375.6 848.1,395.6 860.2,376.7 
				873.8,385.3 839.9,438.4" class="st0"></polygon>
			<path d="M839.9,438.4l-58-36.9l-17.4,27.4c-4.5,7-2.4,16.3,4.6,20.8l32.6,20.8c7,4.5,16.3,2.4,20.8-4.6L839.9,438.4z" class="st0"></path>
			<path d="M848.1,395.6l10.4-19.9l-27.4-17.4l-13.4,17l7.3-20.8l-9.4-6l-19.6,30.7c0,0-3.8,17.5,3.6,14.6c7.4-2.9,23.6-3.7,22.9,4
				c-0.6,7.7,10.3,18.5,20.1,15.8c3.4-0.9,7.5,0.5,11.3,2.7l19.7-30.9l-13.6-8.7L848.1,395.6z"></path>
		</g>
		<g>
			<path d="M760.7,494.8c2.6-3.9,7.8-5,11.7-2.4c3.9,2.6,5,7.8,2.4,11.7l-2.6,3.4c2.7-3.1,7.4-3.8,11-1.5
				c3.9,2.6,5,7.8,2.4,11.7l-2.4,3c2.8-2.8,7.2-3.3,10.6-1.1c3.9,2.6,5,7.8,2.4,11.7l-41,53.6c0,0-63.6,135.4-210.1,172.7V641.8
				c0,0,102.6-15,152.6-98.1l14-33.9c0.2-4.6,2.4-8.8,5.9-11.7l2.4-2c5-4.1,12-4.8,17.8-1.8l2,1.1l7.3-9.4c0,0,5.6-3.5,9.5-0.8
				S762.1,490.4,760.7,494.8l-10.3,13.6" class="st0"></path>
			<line y2="533.1" x2="772.8" y1="522.1" x1="782.1" class="st0"></line>
			<line y2="520.1" x2="762.9" y1="508.4" x1="771.5" class="st0"></line>
		</g>
		<line y2="634.1" x2="456.7" y1="462.6" x1="456.7" class="st10"></line>
		<line y2="845.7" x2="456.7" y1="777" x1="456.7" class="st10"></line>
	</g>
	<g>
		<g>
			<path d="M734.1,1708.4c0,0-56.8-38.9-125.9,0c-52.4,29.5,26.3,185.7,67.2,259.1c13.2,23.6,38.1,38.2,65.1,38.2h378.5
				c18.6,0,36.2-8.1,48.3-22.2c21.4-25,50.2-67.4,41.3-107c-13.7-61.4-120.4-139.6-120.4-139.6L734.1,1708.4z"></path>
			<g>
				<path d="M970.3,1324.9l-24.3,94.2c0,0-13,27.1-47.6,17.6c-34.6-9.5-24.7-36.3-24.7-36.3c0-0.2,4.2-16.4,4.3-16.5
					l4.3-16.9l-8.6-9.4c-9.3-10.1-12.9-24.3-9.4-37.7l14.3-55.6l0,0c0.1-0.4,0.2-0.8,0.3-1.3c7.2-28,35.9-44.8,63.9-37.2
					c27.5,7.5,43.6,36.2,36.5,63.8l-2,7.8L970.3,1324.9z" class="st0"></path>
				<path d="M888.8,1243.5c0,0-14.4,25.2,2.6,32.6c17.1,7.4,12.1,15,7.5,21.5c0,0,15.3-2,17.2,4.4c1.9,6.4-2.8,17.7-13.9,19.5
					c0,0-13.5,15.5-5.3,25.3c8.1,9.8,52.2,26.5,65.5,8.6l27.1-54.4c2.7-5.4,4.2-11.3,4.3-17.4c0.4-17.4-1-53.9-18.7-72.6
					c-23.8-25.1-56.7-30.6-51.9-19.3c0,0-30.6-26.3-38.7-15.3c-8.2,10.9,9.7,27.4,9.7,27.4s-25.8-13.2-31.2-1.5
					C857.6,1214,862.4,1231.5,888.8,1243.5z"></path>
			</g>
			<path d="M854.4,1398.4h158.3c21.4,0,40.4,13.8,47.1,34.1l82.8,252.5c6,18.2,4.3,38.1-4.6,55.1l-39.9,76.3h-364
				v-267.3L608.3,1211l89.3-51.7l100.3,203.9C808.5,1384.7,830.4,1398.4,854.4,1398.4z" class="st15"></path>
			<line y2="1816.5" x2="1098.1" y1="1500.9" x1="1059.3" class="st0"></line>
		</g>
		<g>
			<path d="M628.9,1199.1l-57.8-106.8c-1.9-3.9-0.3-8.7,3.6-10.6s8.7-0.3,10.6,3.6l-2.8-4.5c-1.9-3.9-0.3-8.7,3.6-10.6
				c3.9-1.9,8.7-0.3,10.6,3.6l-2.6-4.4c-1.9-3.9-0.3-8.7,3.6-10.6s8.7-0.3,10.6,3.6l-15.3-35.2c-1.9-3.9-0.3-8.7,3.6-10.6
				c3.9-1.9,8.7-0.3,10.6,3.6l20.4,45.3l2-0.8c5.7-2.1,12.1-0.7,16.3,3.7l2,2.1c3,3.1,4.5,7.3,4.2,11.6l33.1,84.3L628.9,1199.1z" class="st16"></path>
			<line y2="1096.6" x2="592.8" y1="1085.3" x1="585.4" class="st16"></line>
			<line y2="1085.7" x2="603.5" y1="1073.8" x1="596.8" class="st16"></line>
			<line y2="1076.3" x2="616.4" y1="1062.4" x1="608.4" class="st16"></line>
		</g>
	</g>
</g>
<g id="Text">
</g>
</svg>