<svg xmlns:xlink="http://www.w3.org/1999/xlink" xmlns="http://www.w3.org/2000/svg" fill="none" viewBox="0 0 200 201" height="201" width="200">
<rect fill="white" rx="32" height="200" width="200" y="0.744141"></rect>
<path fill="#31D4E2" d="M86.2154 82.0075L94.7521 90.4975C96.1618 91.8905 98.0633 92.6716 100.045 92.6716C102.026 92.6716 103.927 91.8905 105.337 90.4975L112.347 83.5349L113.823 81.9693L154.84 40.9192C155.183 40.5774 155.416 40.1414 155.511 39.6665C155.606 39.1917 155.557 38.6993 155.372 38.252C155.187 37.8047 154.873 37.4226 154.47 37.1541C154.067 36.8857 153.594 36.743 153.11 36.7442H138.695C136.403 36.7397 134.132 37.187 132.012 38.0606C129.893 38.9342 127.966 40.217 126.342 41.8357L100.045 68.1586L91.3425 59.4522C89.755 57.8651 87.8705 56.6064 85.7967 55.7481C83.723 54.8898 81.5005 54.4486 79.2562 54.4498H58.7987L86.279 81.9439L86.2154 82.0075Z"></path>
<path fill="#31D4E2" d="M113.861 119.456L105.337 110.991C103.928 109.591 102.024 108.806 100.038 108.806C98.0527 108.806 96.1479 109.591 94.7393 110.991L87.7293 117.954L86.2535 119.519L45.2238 160.57C44.881 160.911 44.6474 161.347 44.5526 161.822C44.4579 162.297 44.5063 162.789 44.6916 163.237C44.877 163.684 45.1911 164.066 45.5939 164.335C45.9967 164.603 46.4701 164.746 46.9541 164.745H61.5339C66.0709 164.739 70.421 162.935 73.6329 159.729L100.045 133.305L108.619 141.884C111.909 145.154 116.361 146.986 120.998 146.975H141.354L113.874 119.481L113.861 119.456Z"></path>
<path fill="#221ECA" d="M67.5008 100.732L58.875 109.362C57.263 110.97 55.9838 112.88 55.1106 114.984C54.2374 117.087 53.7873 119.342 53.786 121.619V141.985L81.2664 114.479L89.7649 105.912C91.1672 104.504 91.9546 102.598 91.9546 100.611C91.9546 98.6232 91.1672 96.7168 89.7649 95.3091L40.1477 45.769C39.8078 45.4293 39.375 45.1979 38.9038 45.1043C38.4326 45.0106 37.9443 45.0587 37.5004 45.2426C37.0566 45.4265 36.6772 45.7379 36.4102 46.1374C36.1431 46.537 36.0005 47.0067 36.0002 47.4873V61.9853C35.9902 64.274 36.435 66.5419 37.3086 68.6571C38.1822 70.7723 39.4673 72.6927 41.0891 74.3067L67.5008 100.732Z"></path>
<path fill="#221ECA" d="M158.975 127.118L132.728 100.731L141.494 92.0377C144.65 88.8668 146.421 84.5732 146.418 80.0982V59.4395L119.001 86.9462L110.617 95.4235C109.237 96.8301 108.464 98.7223 108.464 100.693C108.464 102.664 109.237 104.556 110.617 105.963L119.039 114.631L159.941 155.681C160.274 156.013 160.698 156.239 161.158 156.33C161.619 156.421 162.096 156.374 162.53 156.195C162.964 156.015 163.336 155.711 163.597 155.32C163.859 154.93 163.999 154.471 164 154.001V139.325C164.007 137.059 163.566 134.815 162.704 132.72C161.841 130.625 160.574 128.722 158.975 127.118Z"></path>
</svg>